<svg id="Layer_1" data-name="Layer 1" xmlns="http://www.w3.org/2000/svg" viewBox="0 0 1497.74 1220.03"><defs><style>.cls-1{fill:#202124;}.cls-2{fill:#084695;}</style></defs><path class="cls-1" d="M267.05,407a59.53,59.53,0,0,1,7.42-24.36A60.36,60.36,0,0,1,299,358.94,590.57,590.57,0,0,0,399.1,343.87,588.89,588.89,0,0,0,473,320.92h87l21.12-14.36c3.72-2.08,14.45-7.44,27.87-5.06a40,40,0,0,1,13.51,5.06c1,.71,7.88,5.91,8.45,15.21.67,10.82-7.84,17.29-8.45,17.74l-32.09,15.2a197.55,197.55,0,0,1,19.27,36.39c14.31,35.62,14.28,66.22,14.51,81,1.13,71.71,2,128.83,26.19,165.56C664.5,659.2,693.67,684.42,761,694.27c19.72-3.06,32.68-9.93,40.55-15.2,32-21.4,45.75-48,58.28-65.89,17.23-24.59,50.84-52.72,123-66.44-3.38,12.35-7.18,34.1.56,58,12.81,39.5,51.81,68.23,99.77,74.89l299.2.38c40.49-5.56,73.43-31.13,84.1-65.7,8.38-27.17.31-51.18-3.38-60.44,17.62,12.77,29.1,20.59,36.51,25.48,1.45.95,4.42,2.87,8.35,5.71,6.22,4.49,12,9.21,20.45,16.4,26,22,45.54,44.39,64.58,67.47C1669.83,762,1708.46,808.39,1726,859a366.07,366.07,0,0,1,19.88,109c1.09,5.38,3,14,5.91,24.49,7.21,25.8,11.32,30.45,12.67,44.77a69.75,69.75,0,0,1-31.25,65,115.89,115.89,0,0,1-22-26.18,118.18,118.18,0,0,1-16.9-53.22,186.82,186.82,0,0,0,10.91-86.05c-7.87-69.8-53.88-112.36-66.66-123.43-4,28.65-7,59.71-8.44,92.92a988.88,988.88,0,0,0,5.91,158.8,427,427,0,0,0,88.69,128.39q-3.79,107.7-7.6,215.39a34.69,34.69,0,0,1,5.07,22.81c-2.1,15.42-14.26,23.37-16,24.49.87,3.46,2.35,9,4.5,15.77,4.56,14.33,7.08,18.21,6.2,24.21-.56,3.78-2.68,9.93-11.55,16.62l-111.49.84a219.85,219.85,0,0,1,60.81-52.37c-11.25-9.69-13.28-17.49-13.25-22.61.09-12.57,12.67-17.85,20-34.83,5.22-12.08,5-23.72,4.22-31.25-14.17-129.85-43.92-195.12-43.92-195.12-13.94-21.49-9.69-7.09-127.55-108.12-56-48-90.28-79.82-105.58-131.77a189.69,189.69,0,0,1-7.6-49,.31.31,0,0,0,0-.09s0,.85,0,.89c-.17,6.18-2.5,34.11-2.5,34.11-1.83,22,.64,20.34-1.12,25.34-2.86,8.11-10.46,15.64-58,30.13-29.25,8.91-44.82,14.82-69.27,16.89-23.53,2-43.64,2.52-59.13,2.54-40.6,0-67.77-.15-100-9.88a226.05,226.05,0,0,1-50.32-22.22,393.13,393.13,0,0,0-6.27,61.94c-.67,31,2.56,52,7.4,91.79,3.75,30.9,6.46,61.91,10.08,92.83,5.14,43.89,9.33,109.73,4.54,204.42a45,45,0,0,1,10.15,24.29c1.64,17.34-7.68,29.66-9.85,32.38-2.53,9.53-1,15.27,1,18.83,1.67,2.89,3.59,4.17,4.32,7.36,1.14,5-1.72,10-4.51,13.51H916.42a114.53,114.53,0,0,1,33-31.53,112.48,112.48,0,0,1,24.49-11.55c-1.75-24.21,3.81-39.91,9.29-49.83,4.91-8.88,9.58-12.82,14.64-23.65a90.1,90.1,0,0,0,8.17-38c-3.91-27.43-11.12-77.73-20.55-142.19-14.06-96-16.64-111.25-29.29-134-22.31-40.18-42.47-43.56-80.52-95.73a443.22,443.22,0,0,1-50.4-89.25,570.52,570.52,0,0,1-81.37-5.35C675,883,594.09,871.83,534.91,814.22c-52.75-51.36-67.09-119-71.23-159.65l.84-186.67A114.24,114.24,0,0,1,406,465.08a112.81,112.81,0,0,1-37.73-20.83,149.8,149.8,0,0,1-77.71-5.92,28.16,28.16,0,0,1,3.94-11.54c8.64-14,27-14.6,29-14.64a26.21,26.21,0,0,0-9.86-2.25c-6.23-.15-8.39,2.21-15.64,4.23-4.84,1.36-16.39,4.58-24.9-.85A19,19,0,0,1,267.05,407Z" transform="translate(-267.05 -300.9)"/><path class="cls-1" d="M1395.54,1002.49A928.33,928.33,0,0,0,1555.09,1135v56.31a60.82,60.82,0,0,1,20.65,50.3c-.13,1.89.19,10.08-1.09,16.86-4.05,21.59-23.8,35.74-28.19,39.08-16.29,12.41-44.5,46.25-96.86,136.65.72,2.83,5.11,21.52-6.38,35.29a32.67,32.67,0,0,1-9.76,7.88l.38,36.23H1292.31a91.4,91.4,0,0,1,77-38.48,24.75,24.75,0,0,1-7.14-16.89c-.08-8.74,5.47-15.21,8.26-18.4,18.66-21.3,49.12-51.06,60.82-64.19,14-15.73,20.93-29.87,28.9-46.18,10.06-20.55,24.67-58.11,24.78-111.12a146,146,0,0,0-5.43-51.65c-11.61-39.23-35.14-53-57.64-94.39A276.91,276.91,0,0,1,1395.54,1002.49Z" transform="translate(-267.05 -300.9)"/><path class="cls-1" d="M837.3,964.57a388.58,388.58,0,0,0,67,78.27,256,256,0,0,0-10.7,42c-3.39,20.28-2.84,32.11-4.51,56.59-.61,9-2.48,36.38-6.23,56.3-5.72,30.45-16,44.39-46.17,99.82-10,18.41-24.47,45.5-41.36,79.26v107c-10.87,3.25-14.1,7.38-14.92,10.7-1.41,5.66,4,9.81,2.53,16-1.21,5.18-6.38,8.44-10.7,10.42H622.47a86.67,86.67,0,0,1,62.23-50.68,63.19,63.19,0,0,1,7.88-24.78c12.54-21.72,33.56-16.52,48.71-37.16,5.17-7,2.91-7.41,14.93-39.7,3.61-9.72,6.28-16.29,7.22-18.64,7-17.56,9-38.25,10.23-52.6,0,0,.54-10.44,4.79-68.42,3.17-43.23,4.92-65.32,12.95-88.41a194.48,194.48,0,0,1,28.16-52.65c3.43-14.79,6.58-30.48,9.29-47A733.26,733.26,0,0,0,837.3,964.57Z" transform="translate(-267.05 -300.9)"/><path class="cls-2" d="M992.35,544.87a103.9,103.9,0,0,1,34.73-48.25c31.78-24.23,67.08-21.18,75.17-20.27a154.23,154.23,0,0,1,60-54.06c11.69-5.87,51.8-24.1,101.71-12.37a147.49,147.49,0,0,1,72.3,41.09,142.88,142.88,0,0,1,32.1,54.9,118.73,118.73,0,0,1,86.87,47.87c2.2,5.53,13.8,36.29-1.44,68.75-20.59,43.86-70.54,49-72.76,49.22H1084.51c-47.24-7.3-84.51-36.43-94.6-74.62C984.26,575.74,988.47,556.53,992.35,544.87Z" transform="translate(-267.05 -300.9)"/></svg>